PathFileType	4	(X/Y/Z)	Kaydara	
DataRate	CameraRate	NumFrames	NumMarkers	Units	OrigDataRate	OrigDataStartFrame	OrigNumFrames	
60.00	60.00	4	74	mm	60.00	1561	181	
Frame#	Time	Z_lasi			Z_rasi			Z_rpsi			Z_lpsi			Z_fneck			Z_bneck			Z_fhead			Z_rhead			Z_lhead			Z_rshld			Z_relbtop			Z_relbext			Z_relblow			Z_rwrext			Z_rwrtop			Z_rwrlow			Z_lshld			Z_lelbext			Z_lelblow			Z_lelbtop			Z_lwrext			Z_lwrtop			Z_lwrlow			Z_rtopleg			Z_ltopleg			Z_rkneefr			Z_rkneebk			Z_rkneeis			Z_lkneefr			Z_lknssbk			Z_lkneeis			Z_rankfr			Z_rankis			Z_rankbk			Z_lankfr			Z_lankbk			Z_lankis			A_lasi			A_rasi			A_rpsi			A_lpsi			A_fneck			A_bneck			A_fhead			A_rhead			A_lhead			A_rshld			A_relbtop			A_relbext			A_relblow			A_rwrext			A_rwrtop			A_rwrlow			A_lshld			A_lelbext			A_lelblow			A_lelbtop			A_lwrext			A_lwrtop			A_lwrlow			A_rtopleg			A_ltopleg			A_rkneefr			A_rkneebk			A_rkneeis			A_lkneefr			A_lknssbk			A_lkneeis			A_rankfr			A_rankis			A_rankbk			A_lankfr			A_lankbk			A_lankis			
		X1	Y1	Z1	X2	Y2	Z2	X3	Y3	Z3	X4	Y4	Z4	X5	Y5	Z5	X6	Y6	Z6	X7	Y7	Z7	X8	Y8	Z8	X9	Y9	Z9	X10	Y10	Z10	X11	Y11	Z11	X12	Y12	Z12	X13	Y13	Z13	X14	Y14	Z14	X15	Y15	Z15	X16	Y16	Z16	X17	Y17	Z17	X18	Y18	Z18	X19	Y19	Z19	X20	Y20	Z20	X21	Y21	Z21	X22	Y22	Z22	X23	Y23	Z23	X24	Y24	Z24	X25	Y25	Z25	X26	Y26	Z26	X27	Y27	Z27	X28	Y28	Z28	X29	Y29	Z29	X30	Y30	Z30	X31	Y31	Z31	X32	Y32	Z32	X33	Y33	Z33	X34	Y34	Z34	X35	Y35	Z35	X36	Y36	Z36	X37	Y37	Z37	X38	Y38	Z38	X39	Y39	Z39	X40	Y40	Z40	X41	Y41	Z41	X42	Y42	Z42	X43	Y43	Z43	X44	Y44	Z44	X45	Y45	Z45	X46	Y46	Z46	X47	Y47	Z47	X48	Y48	Z48	X49	Y49	Z49	X50	Y50	Z50	X51	Y51	Z51	X52	Y52	Z52	X53	Y53	Z53	X54	Y54	Z54	X55	Y55	Z55	X56	Y56	Z56	X57	Y57	Z57	X58	Y58	Z58	X59	Y59	Z59	X60	Y60	Z60	X61	Y61	Z61	X62	Y62	Z62	X63	Y63	Z63	X64	Y64	Z64	X65	Y65	Z65	X66	Y66	Z66	X67	Y67	Z67	X68	Y68	Z68	X69	Y69	Z69	X70	Y70	Z70	X71	Y71	Z71	X72	Y72	Z72	X73	Y73	Z73	X74	Y74	Z74	

91	26.000	-271.88984	1057.96951	547.28432	-303.62890	1073.08861	341.46393	-119.15366	1111.32538	278.16267	-80.45748	1088.89824	523.13332	-264.77350	1445.22583	442.79778	-151.10950	1495.04974	467.11334	-291.80864	1678.81958	413.91560	-135.07429	1623.03345	389.47067	-180.56219	1622.63992	530.05722	-189.82508	1432.75238	243.69911	-141.59461	1113.71864	161.36280	-121.74626	1096.51321	217.11769	-211.71270	1123.08731	192.82770	-238.82849	885.81856	156.96941	-274.57453	899.47968	182.61881	-255.63906	895.02487	220.24616	-180.08604	1423.80875	642.09976	-143.31327	1105.52078	640.04379	-212.27844	1125.03426	694.64287	-144.79503	1121.82159	709.77699	-285.93708	874.47266	659.99893	-280.59166	864.26949	706.05843	-234.12792	857.96646	703.64571	-165.74408	916.38832	224.80093	-177.61045	885.31075	590.36491	-230.89691	409.60320	316.47154	-158.99674	440.20348	270.60801	-176.04548	434.51984	394.44592	-237.42132	442.94796	617.52548	-132.92164	472.32937	603.63724	-225.52315	438.88557	522.39975	-160.10979	172.04893	329.77543	-143.02133	177.13476	394.31301	-82.57434	173.48408	330.44975	-146.87765	169.90984	653.52821	-90.78522	170.49141	596.60042	-168.74409	168.33805	583.53146	-958.91037	1029.52789	490.91354	-958.74695	1038.31070	650.28328	-1121.86501	1039.73450	654.96452	-1082.99881	1041.30424	474.88117	-1031.53915	1382.49054	574.29909	-1167.39990	1405.43762	551.37119	-977.60689	1595.05463	590.02804	-1133.00529	1555.23239	653.07800	-1109.52766	1557.73758	490.34046	-1118.69156	1355.74982	745.61829	-1107.72469	1061.89697	780.38445	-1165.58823	1055.34760	751.13632	-1098.17993	1050.87097	723.39340	-1090.36545	815.85213	808.16910	-1046.07735	825.26711	802.01668	-1047.64313	823.68401	762.27127	-1048.89046	1354.68445	391.68972	-1072.78732	1043.52562	367.31598	-1009.69391	1051.90323	403.10627	-1025.91209	1050.14961	350.97374	-985.18631	823.28560	397.61108	-978.76122	826.20911	357.26372	-938.51303	836.02333	376.79520	-1076.61980	877.33368	741.36078	-1014.43802	889.73770	405.99255	-1029.83757	451.81957	656.28906	-1140.62729	487.87727	692.98332	-1111.71814	486.48472	576.12843	-1007.73643	461.98895	518.56998	-1088.52112	481.28349	419.79443	-1114.75693	479.61140	543.56735	-1103.58871	166.84721	675.29869	-1131.45477	163.58427	606.92451	-1184.66766	154.94653	672.55516	-1065.32204	166.61081	459.48437	-1125.91515	169.76780	423.35808	-1125.50148	173.55291	512.87334 
92	26.017	-271.09558	1057.42661	543.16399	-303.45348	1072.54639	337.44835	-119.60079	1110.99831	273.86341	-79.87337	1088.48427	518.72749	-265.14410	1444.88754	438.82053	-151.21038	1494.86786	461.79729	-293.38663	1678.32275	410.65754	-137.20793	1622.83737	382.64973	-179.45210	1622.43378	524.23859	-190.75678	1432.09961	238.93335	-141.78444	1113.20778	156.68861	-121.93113	1095.96458	212.42832	-211.91757	1122.33398	188.28030	-238.24703	884.93240	152.56781	-273.97257	898.44467	178.30530	-254.19170	893.36502	216.52475	-180.10921	1423.88962	637.33765	-142.79396	1105.63858	635.47260	-211.97187	1124.96193	689.96918	-144.44427	1121.84387	705.27145	-285.44413	874.45602	655.15633	-280.29896	864.28047	701.28273	-233.82526	857.98561	698.76816	-165.36396	916.23581	220.64144	-177.16410	884.96666	586.23180	-228.93198	409.75235	314.81638	-157.04974	439.97627	268.64960	-174.21160	435.03105	392.70523	-240.24855	443.34263	615.72441	-135.78336	473.07163	602.10583	-228.10085	439.43787	520.55229	-159.49638	171.91744	329.16779	-142.38390	177.24506	393.73695	-81.87325	172.90188	329.75571	-147.46811	170.77023	652.36031	-91.51353	171.53543	595.56316	-169.56219	168.88300	582.71160	-959.23584	1029.47617	491.22551	-958.96851	1038.21579	650.23476	-1121.86417	1039.69582	655.01534	-1083.27454	1041.38733	474.90028	-1031.54282	1382.51907	574.42829	-1167.49107	1405.57709	552.29729	-977.63557	1595.06058	588.40618	-1131.91933	1555.72495	653.33672	-1110.76706	1557.49420	490.53822	-1117.84950	1356.03409	746.23337	-1107.49344	1062.06337	780.79659	-1165.36118	1055.62912	751.43082	-1097.86316	1051.03210	723.69492	-1090.28786	816.10062	808.38394	-1045.88806	825.41191	802.24548	-1047.59621	823.83003	762.50908	-1049.21799	1354.98367	391.96609	-1073.62083	1043.86497	367.28355	-1010.36850	1052.10838	402.85435	-1026.86386	1050.40176	350.68333	-985.73769	823.45245	397.52769	-980.08255	826.42868	356.60168	-939.71199	836.12312	375.77984	-1076.61705	877.40280	741.42410	-1014.59579	889.77463	405.99113	-1030.15213	451.74049	656.60904	-1140.71335	487.85286	692.96555	-1111.84280	486.46851	576.09760	-1007.79228	462.04247	518.45863	-1088.69713	481.28216	419.75880	-1114.84901	479.59908	543.52642	-1103.60313	166.83367	675.27237	-1131.47842	163.57342	606.90430	-1184.68552	154.90703	672.53769	-1065.35904	166.61421	459.46449	-1125.99350	169.72950	423.36559	-1125.53017	173.55049	512.87617 
93	26.033	-270.29852	1057.06650	539.37019	-303.38400	1072.06406	333.75622	-119.97272	1110.72899	269.81646	-79.25716	1088.26195	514.52488	-265.36551	1444.60190	434.82552	-151.04635	1494.90448	456.49189	-294.87961	1677.98157	407.55569	-139.13810	1622.78214	376.13808	-178.33389	1622.29767	518.48694	-191.67461	1431.52451	234.31763	-142.05997	1112.70042	152.18688	-122.10514	1095.44273	207.86457	-212.05954	1121.60583	183.90850	-237.58741	884.10980	148.29653	-273.44511	897.49702	173.90835	-253.57838	892.55974	212.05965	-179.64571	1424.26971	632.73041	-142.34702	1105.74844	631.10149	-211.41392	1125.09232	685.59746	-143.93565	1122.04559	700.77446	-285.13086	874.67590	650.54794	-279.80005	864.39575	696.66885	-233.41156	858.15735	694.34319	-164.94843	916.07323	216.81496	-176.94166	884.86626	582.44297	-226.91042	410.00988	313.23826	-155.08336	439.88762	266.89188	-171.97773	435.39295	391.14281	-242.98306	443.99010	613.66871	-138.51319	473.85216	600.56507	-230.43489	439.90623	518.58219	-158.65137	171.82695	328.55389	-141.39360	177.28329	392.97932	-81.13419	172.44011	329.06235	-148.08464	171.73744	650.99823	-92.21455	172.74456	594.45000	-170.20863	169.55547	581.62163	-959.51859	1029.63058	491.12698	-959.12453	1038.12828	650.20760	-1121.95694	1039.69734	655.15472	-1083.51852	1041.45523	474.96647	-1031.43837	1382.53601	574.53987	-1167.52769	1405.67032	553.18874	-977.81624	1595.05432	586.93176	-1131.04248	1556.16638	653.56049	-1111.97838	1557.14111	490.72899	-1117.01752	1356.32172	746.82724	-1107.15431	1062.26151	781.14304	-1164.98154	1055.90477	751.65054	-1097.45605	1051.22192	724.05540	-1090.09628	816.34758	808.58482	-1045.59242	825.65918	802.54372	-1047.40189	824.05678	762.74628	-1049.57039	1355.26367	392.30293	-1074.57603	1044.27277	367.48375	-1010.98724	1052.40959	402.52102	-1027.84958	1050.65544	350.67677	-986.79329	823.61343	396.96522	-981.45782	826.67839	355.86033	-940.98763	836.25153	374.77165	-1076.59088	877.41280	741.48392	-1014.82819	889.76402	405.97378	-1030.31776	451.71669	656.60652	-1140.79887	487.81765	692.93083	-1111.93054	486.45218	576.05431	-1007.76512	462.07466	518.28964	-1088.83621	481.27167	419.72122	-1114.94507	479.56455	543.47713	-1103.61221	166.82552	675.24750	-1131.50970	163.55198	606.86268	-1184.69765	154.88397	672.54433	-1065.40375	166.63649	459.45419	-1126.06140	169.69734	423.35533	-1125.58907	173.54456	512.88433 
94	26.050	-270.02903	1056.98135	535.95989	-303.22245	1071.76437	330.27077	-120.20760	1110.52094	265.95417	-78.79552	1088.30154	510.54138	-265.55647	1444.52484	431.22982	-150.95192	1495.07904	451.47045	-296.15814	1677.67441	404.61529	-141.19457	1622.93945	369.78870	-177.02942	1622.60422	512.97863	-192.51945	1431.00571	229.95451	-142.51744	1112.30858	147.90412	-122.35493	1095.09735	203.53617	-212.10255	1120.90309	180.24332	-237.04067	883.37257	144.07269	-272.92336	896.55304	169.81205	-252.96225	891.63925	207.45453	-179.15302	1424.50989	628.29945	-141.75797	1106.04660	626.85863	-210.87893	1125.38521	681.26534	-143.38342	1122.39510	696.60500	-284.43005	874.94316	646.31104	-279.30063	864.70116	692.41020	-232.90291	858.52020	689.99062	-164.63078	915.87540	213.37002	-176.72188	885.19012	579.10297	-224.89071	410.22121	312.02703	-153.15145	439.70387	265.44970	-169.92491	435.81299	389.75842	-245.46864	444.70676	611.21113	-141.04086	474.84478	598.96145	-232.92547	440.41904	516.54854	-158.20663	171.80897	328.10303	-140.83171	177.41289	392.58606	-80.56791	171.92825	328.59459	-149.13159	172.87741	649.50195	-92.79524	174.05418	593.25020	-170.69569	170.58352	580.05520	-959.71649	1029.75456	490.87677	-959.33060	1038.04588	650.16129	-1122.00829	1039.69315	655.25627	-1083.71651	1041.53107	475.02018	-1031.34766	1382.56348	574.72244	-1167.50443	1405.76462	554.15390	-977.91969	1595.20035	585.33207	-1130.13618	1556.73752	653.89694	-1113.26408	1556.75583	490.98892	-1116.22078	1356.60538	747.40875	-1107.07191	1062.45705	781.37909	-1164.61121	1056.13617	751.54541	-1096.88332	1051.54724	724.43581	-1089.85336	816.54343	808.76648	-1045.49667	825.91949	803.01865	-1047.00027	824.54651	763.16071	-1049.81857	1355.54520	392.72308	-1075.64606	1044.52759	367.90840	-1011.57227	1052.69737	402.23106	-1029.14581	1050.96107	350.59299	-988.68408	824.17931	395.36518	-983.02879	826.86745	355.22167	-942.29195	836.45142	373.68549	-1076.59653	877.44576	741.56281	-1014.64386	889.76517	405.96123	-1030.41748	451.70670	656.55182	-1140.91637	487.82185	692.89185	-1112.06245	486.43906	576.01547	-1007.50710	462.17319	517.97047	-1088.99002	481.25580	419.65824	-1115.05775	479.54376	543.45219	-1103.63029	166.82911	675.16655	-1131.53267	163.38062	607.17495	-1184.74182	154.86444	672.56065	-1065.45364	166.64019	459.43012	-1126.11153	169.69332	423.32859	-1125.63324	173.54509	512.88803 
